<?xml version="1.0" encoding="UTF-8"?>
<svg xmlns="http://www.w3.org/2000/svg" version="1.1" viewBox="0 0 28.35 28.35">
  <!-- Generator: Adobe Illustrator 30.2.1, SVG Export Plug-In . SVG Version: 2.1.1 Build 1)  -->
  <defs>
    <style>
      .st0 {
        fill: #273f91;
      }

      .st1, .st2, .st3, .st4, .st5, .st6, .st7 {
        stroke: #1d1d1b;
        stroke-miterlimit: 10;
      }

      .st1, .st2, .st4, .st5 {
        stroke-width: .09px;
      }

      .st1, .st8, .st9 {
        fill: none;
      }

      .st2 {
        fill: #fff91d;
      }

      .st10 {
        fill: #caf5ff;
      }

      .st3 {
        fill: #69b32d;
      }

      .st11 {
        fill: #219138;
      }

      .st8 {
        stroke-width: 1.69px;
      }

      .st8, .st9 {
        stroke: #25afe5;
        stroke-linejoin: round;
      }

      .st4 {
        fill: #f9f9f9;
      }

      .st5 {
        fill: #87bc24;
      }

      .st12 {
        fill: #f5a21a;
      }

      .st6 {
        fill: #f49c1e;
      }

      .st13 {
        fill: #e63827;
      }

      .st7 {
        fill: #238035;
      }

      .st14 {
        display: none;
      }

      .st9 {
        stroke-width: 35px;
      }
    </style>
  </defs>
  <g id="Livello_2" class="st14">
    <polygon class="st7" points="-467.63 -413.25 -394.64 -541.13 -375.24 -550.48 -358.88 -530.82 -339.48 -497.49 -320.7 -502.34 -296.14 -504.76 -252.21 -417.49 -467.63 -413.25"/>
    <polyline class="st3" points="-535.4 -263.82 -443.62 -259.58 -511.76 -361.09 -542.06 -364.42 -555.4 -371.09 -579.32 -351.09"/>
    <polygon class="st6" points="-446.26 -98.63 -750.82 -98.63 -750.82 -259.58 -537.25 -263.82 -446.26 -259.58 -446.26 -98.63"/>
    <path class="st7" d="M-270.49-132.57"/>
  </g>
  <g id="Livello_3">
    <path class="st9" d="M-684.57-583.63"/>
    <g>
      <g>
        <g>
          <polygon class="st0" points="28.35 4.86 28.35 16.6 17.18 16.75 .05 10.88 10.3 0 19.26 10.44 28.35 4.86"/>
          <polygon class="st10" points="28.35 0 28.35 4.86 19.26 10.44 10.3 0 28.35 0"/>
          <polygon class="st12" points="28.35 28.35 23.28 28.35 .05 14.55 .05 10.88 28.35 28.35"/>
          <polygon class="st11" points="23.28 28.35 15.89 28.35 .05 19.61 .05 14.55 23.28 28.35"/>
          <polygon class="st13" points="15.89 28.35 .05 28.35 .05 19.61 15.89 28.35"/>
          <polygon class="st10" points="10.3 0 .05 10.88 .05 0 10.3 0"/>
        </g>
        <g>
          <polyline class="st1" points="28.35 4.86 19.26 10.44 10.3 0 .05 10.88 .05 0 10.3 0 28.35 0"/>
          <line class="st1" x1=".05" y1="14.55" x2="23.28" y2="28.35"/>
          <line class="st1" x1=".05" y1="19.61" x2="15.89" y2="28.35"/>
          <polyline class="st1" points="28.35 0 28.35 4.86 28.35 16.6 17.18 16.75 .05 10.88 28.35 28.35 23.28 28.35 15.89 28.35 .05 28.35 .05 19.61 .05 14.55 .05 10.88"/>
        </g>
      </g>
      <polyline class="st5" points=".05 10.88 17.18 16.75 28.35 16.6 28.35 28.35"/>
      <ellipse class="st2" cx="20.04" cy="4.25" rx="4.15" ry="4.25"/>
      <polyline class="st8" points="0 16.05 3.43 16.05 14.76 18.18 5.87 20.77 11.34 23.83 18.06 23.98 23.59 21.41 24.05 23.83 28.29 23.83"/>
      <polyline class="st4" points="3.85 6.85 9.29 7.13 13.24 7.13 15.51 6.07 10.3 0"/>
    </g>
  </g>
</svg>