<?xml version="1.0" encoding="UTF-8"?>
<svg xmlns="http://www.w3.org/2000/svg" version="1.1" viewBox="0 0 30.51 29.82">
  <!-- Generator: Adobe Illustrator 30.2.1, SVG Export Plug-In . SVG Version: 2.1.1 Build 1)  -->
  <defs>
    <style>
      .st0 {
        fill: #273f91;
      }

      .st1, .st2, .st3, .st4, .st5, .st6, .st7 {
        stroke: #1d1d1b;
        stroke-miterlimit: 10;
      }

      .st1, .st2, .st4, .st5 {
        stroke-width: .1px;
      }

      .st1, .st8, .st9 {
        fill: none;
      }

      .st2 {
        fill: #fff91d;
      }

      .st10 {
        fill: #6ab7e2;
      }

      .st3 {
        fill: #69b32d;
      }

      .st11 {
        fill: #219138;
      }

      .st8 {
        stroke-width: 1.8px;
      }

      .st8, .st9 {
        stroke: #25afe5;
        stroke-linejoin: round;
      }

      .st4 {
        fill: #f9f9f9;
      }

      .st5 {
        fill: #87bc24;
      }

      .st12 {
        fill: #f5a21a;
      }

      .st6 {
        fill: #f49c1e;
      }

      .st13 {
        fill: #e63827;
      }

      .st7 {
        fill: #238035;
      }

      .st14 {
        display: none;
      }

      .st9 {
        stroke-width: 35px;
      }
    </style>
  </defs>
  <g id="Livello_2" class="st14">
    <polygon class="st7" points="-333.87 -283.44 -260.87 -411.32 -241.48 -420.68 -225.11 -401.02 -205.72 -367.68 -186.93 -372.53 -162.37 -374.96 -118.45 -287.68 -333.87 -283.44"/>
    <polyline class="st3" points="-401.63 -134.01 -309.85 -129.77 -378 -231.28 -408.3 -234.62 -421.63 -241.28 -445.56 -221.28"/>
    <polygon class="st6" points="-312.49 31.18 -617.05 31.18 -617.05 -129.77 -403.49 -134.01 -312.49 -129.77 -312.49 31.18"/>
    <path class="st7" d="M-136.73-2.77"/>
  </g>
  <g id="Livello_3">
    <path class="st9" d="M-550.81-453.82"/>
    <g>
      <g>
        <g>
          <polygon class="st0" points="30.51 5.11 30.51 17.47 18.5 17.62 .06 11.44 11.08 0 20.74 10.98 30.51 5.11"/>
          <polygon class="st10" points="30.51 0 30.51 5.11 20.74 10.98 11.08 0 30.51 0"/>
          <polygon class="st12" points="30.51 29.82 25.06 29.82 .06 15.3 .06 11.44 30.51 29.82"/>
          <polygon class="st11" points="25.06 29.82 17.11 29.82 .06 20.63 .06 15.3 25.06 29.82"/>
          <polygon class="st13" points="17.11 29.82 .06 29.82 .06 20.63 17.11 29.82"/>
          <polygon class="st10" points="11.08 0 .06 11.44 .06 0 11.08 0"/>
        </g>
        <g>
          <polyline class="st1" points="30.51 5.11 20.74 10.98 11.08 0 .06 11.44 .06 0 11.08 0 30.51 0"/>
          <line class="st1" x1=".06" y1="15.3" x2="25.06" y2="29.82"/>
          <line class="st1" x1=".06" y1="20.63" x2="17.11" y2="29.82"/>
          <polyline class="st1" points="30.51 0 30.51 5.11 30.51 17.47 18.5 17.62 .06 11.44 30.51 29.82 25.06 29.82 17.11 29.82 .06 29.82 .06 20.63 .06 15.3 .06 11.44"/>
        </g>
      </g>
      <polyline class="st5" points=".06 11.44 18.5 17.62 30.51 17.47 30.51 29.82"/>
      <circle class="st2" cx="21.58" cy="4.47" r="4.47"/>
      <polyline class="st8" points="0 16.88 3.69 16.88 15.89 19.12 6.32 21.85 12.21 25.06 19.44 25.22 25.39 22.52 25.89 25.06 30.46 25.06"/>
      <polyline class="st4" points="4.14 7.21 10 7.5 14.25 7.5 16.7 6.39 11.08 0"/>
    </g>
  </g>
</svg>